 <svg  version="1.0" xmlns="http://www.w3.org/2000/svg"  width="300.000000pt" height="233.000000pt" viewBox="0 0 300.000000 233.000000"  preserveAspectRatio="xMidYMid meet">  <g transform="translate(0.000000,233.000000) scale(0.100000,-0.100000)" fill="#22796d" stroke="none"> <path d="M587 2301 c-4 -18 -6 -86 -5 -150 l2 -116 6 115 6 115 4 -110 4 -110 3 90 c2 50 0 115 -5 145 -8 53 -8 54 -15 21z"/> <path d="M635 2225 c4 -60 11 -129 15 -152 l7 -43 -47 0 c-27 0 -50 3 -53 8 -2 4 -2 2 -1 -5 2 -6 -4 -17 -12 -23 -16 -14 -18 -42 -4 -56 5 -5 11 -66 13 -134 l3 -125 2 134 c1 74 5 131 9 128 3 -4 10 -62 14 -130 l7 -122 -2 132 c-2 101 0 133 10 137 23 9 72 -14 78 -37 9 -36 7 -237 -3 -237 -38 0 -41 10 -41 138 0 69 -3 122 -6 119 -4 -4 -6 -62 -5 -130 l2 -123 -51 -13 c-41 -11 -50 -17 -45 -30 22 -57 38 -135 29 -138 -6 -2 -19 -9 -29 -17 -16 -12 -16 -15 4 -54 20 -39 21 -56 21 -301 l0 -260 -71 20 c-40 11 -77 18 -83 16 -10 -4 7 -10 114 -37 l40 -11 0 -57 c0 -33 5 -64 13 -71 10 -11 8 -13 -10 -8 -16 3 -28 -2 -40 -18 -10 -13 -53 -51 -95 -84 -42 -33 -82 -69 -88 -80 -10 -19 -7 -20 62 -16 52 3 67 1 53 -6 -15 -7 -9 -8 25 -4 43 5 44 4 19 -10 -34 -18 -179 -32 -179 -16 0 7 20 11 53 12 59 1 54 5 -15 12 -41 4 -48 2 -48 -13 0 -12 -11 -19 -38 -24 -76 -12 -73 -15 -70 76 l3 83 115 32 c63 18 135 37 159 43 23 6 41 14 38 16 -3 3 -32 -2 -65 -10 -33 -9 -65 -16 -71 -16 -7 0 -10 82 -11 257 0 214 -2 260 -14 269 -8 6 -59 19 -113 28 l-98 18 -69 -28 c-39 -15 -65 -29 -59 -31 6 -2 30 5 52 17 l41 20 1 -237 c0 -131 1 -328 1 -438 l2 -200 5 150 c4 83 7 280 9 439 1 160 5 292 7 294 4 5 70 -7 178 -30 l47 -10 0 -204 c0 -129 -4 -204 -10 -204 -6 0 -11 62 -12 163 l-2 162 -3 -157 c-3 -145 -5 -158 -22 -158 -17 0 -18 11 -15 172 2 119 0 159 -6 128 -5 -25 -9 -102 -9 -172 -1 -121 -2 -126 -21 -121 -19 5 -20 14 -20 176 0 94 -2 168 -5 165 -3 -2 -5 -120 -5 -260 -1 -246 -1 -256 -20 -261 -19 -5 -20 -14 -19 -134 1 -80 4 -117 9 -98 5 20 8 23 9 10 1 -11 4 -36 7 -55 l6 -35 -69 0 -68 0 -23 -46 c-13 -26 -25 -64 -27 -85 -4 -31 0 -25 16 26 29 91 41 102 108 98 49 -3 56 -6 53 -22 -3 -17 1 -18 45 -13 l48 7 -28 -25 c-15 -14 -22 -25 -15 -24 7 0 25 15 40 33 l27 32 -31 -4 -31 -5 19 26 c10 14 42 40 69 58 28 19 65 47 84 63 79 66 137 74 198 26 25 -19 38 -21 140 -19 62 1 115 0 118 -2 2 -3 -11 -13 -30 -24 -19 -10 -35 -22 -35 -27 0 -4 17 2 38 15 42 27 48 49 14 57 -13 3 -23 8 -23 13 1 4 1 12 1 18 0 7 -25 35 -55 63 -53 49 -56 55 -62 110 l-6 59 33 -6 c18 -4 111 -7 206 -7 148 0 174 -2 174 -15 0 -11 -11 -15 -37 -15 -30 -1 -34 -3 -21 -10 11 -7 122 -6 325 2 169 6 319 9 333 5 14 -4 37 -17 52 -29 l26 -23 7 -277 c6 -244 5 -278 -9 -278 -31 0 -22 -15 9 -16 25 0 35 5 38 18 6 20 29 16 60 -10 9 -8 17 -10 17 -5 0 6 -8 14 -17 17 -15 6 -15 9 -3 16 18 11 53 -7 44 -22 -5 -7 -2 -8 6 -3 15 9 29 -11 31 -45 0 -23 1 -23 9 -5 4 11 4 24 -1 29 -14 16 -10 30 4 17 8 -6 17 -8 20 -4 4 3 7 -6 7 -20 0 -17 5 -27 15 -27 8 0 15 -4 15 -8 0 -8 52 -42 65 -42 3 0 3 4 0 10 -3 5 -1 10 4 10 6 0 11 5 11 11 0 8 -4 8 -14 0 -18 -15 -56 2 -56 24 0 9 -9 23 -20 32 -12 11 -20 30 -20 50 l0 33 75 0 c72 0 75 -1 72 -22 -2 -21 -9 -24 -72 -29 l-70 -5 78 -2 77 -2 0 85 c0 48 -4 85 -10 85 -5 0 -7 -6 -4 -14 4 -10 -11 -14 -70 -15 l-76 -2 0 30 0 30 83 4 82 3 -87 2 -88 2 0 -112 0 -111 -24 22 c-15 14 -38 23 -60 24 l-36 1 -1 195 c-1 279 2 465 7 470 2 2 15 -5 27 -18 13 -12 33 -23 44 -25 11 -2 34 -18 52 -34 52 -48 71 -62 75 -59 2 1 30 -18 62 -42 93 -69 45 -23 -61 59 -53 41 -91 76 -85 78 5 2 48 -26 95 -63 47 -36 85 -64 85 -61 0 2 -40 36 -89 74 -59 48 -92 67 -99 60 -13 -13 -64 13 -88 46 -18 24 -25 25 -139 28 -136 3 -206 1 -385 -12 -69 -5 -150 -6 -180 -2 -52 7 -48 9 85 22 77 8 126 16 109 18 -18 2 -92 -4 -165 -13 -74 -9 -164 -18 -201 -22 -37 -3 -66 -9 -64 -12 2 -3 -57 -6 -131 -6 -112 0 -140 -3 -162 -17 -14 -10 -21 -18 -16 -18 6 0 20 7 32 15 16 11 32 13 67 6 26 -5 108 -4 192 1 105 7 149 7 157 -1 8 -8 -4 -11 -44 -12 -29 -1 -103 -5 -164 -9 l-110 -7 164 -1 c90 -1 161 -5 158 -9 -10 -10 -359 -3 -377 7 -12 8 -12 9 -1 10 8 0 12 2 10 5 -3 2 -22 -2 -43 -9 -33 -12 -36 -15 -21 -23 15 -9 17 -19 11 -66 -11 -82 -23 -86 -85 -31 -28 25 -51 51 -51 57 0 6 20 -9 45 -33 l45 -44 0 377 c0 358 1 380 20 417 26 50 25 57 -4 72 l-25 13 20 59 c11 32 18 63 16 70 -3 6 -10 -11 -17 -37 -7 -26 -14 -46 -17 -44 -2 3 1 25 8 51 10 39 15 46 30 41 13 -4 19 -1 19 9 0 9 -7 16 -16 16 -13 0 -15 18 -11 133 2 72 7 142 11 154 6 17 3 24 -16 35 -12 7 -24 22 -25 33 -1 11 -7 79 -13 150 -7 72 -14 132 -17 135 -3 3 -2 -44 2 -105z m25 -215 c13 -9 13 -10 0 -10 -13 0 -13 -1 0 -10 19 -12 13 -12 -30 0 -37 11 -74 5 -65 -11 3 -5 -1 -6 -10 -3 -14 6 -14 8 1 25 19 21 78 26 104 9z m7 -351 c1 -10 -3 -19 -9 -19 -7 0 -9 -18 -4 -55 l6 -55 -44 2 c-49 1 -61 18 -50 68 4 18 3 21 -4 12 -7 -11 -11 -7 -16 13 -7 28 7 55 21 42 4 -4 7 -30 7 -58 0 -52 9 -48 20 11 4 26 3 31 -4 20 -9 -12 -10 -10 -8 10 2 14 11 26 20 28 14 3 18 -7 21 -60 l3 -63 2 67 c2 58 4 66 20 61 10 -2 18 -13 19 -24z m0 -156 c-4 -3 0 -11 9 -17 13 -10 13 -16 2 -42 -17 -41 -38 -32 -38 16 0 21 6 41 13 43 18 8 21 8 14 0z m-65 -35 l1 -33 4 33 c6 43 23 41 23 -3 0 -19 -2 -35 -4 -35 -2 0 -11 -3 -20 -6 -21 -8 -54 55 -34 67 22 15 28 10 30 -23z m-39 -17 c19 -32 21 -41 9 -41 -5 0 -16 16 -25 35 -20 42 -8 47 16 6z m49 -373 l3 -333 2 333 c3 310 4 333 21 330 16 -3 17 -31 20 -373 l2 -369 -38 37 c-21 21 -42 34 -47 30 -4 -5 -5 -2 -1 5 4 7 2 19 -4 27 -14 17 -11 610 3 633 5 6 15 12 23 12 12 0 14 -51 16 -332z m-341 -303 l6 -60 1 58 c2 50 5 57 22 57 17 0 20 -7 22 -42 l1 -43 4 38 c6 55 21 45 25 -17 l3 -54 -57 -16 c-32 -9 -60 -16 -63 -16 -3 0 -5 36 -5 81 0 71 2 80 18 77 13 -2 18 -17 23 -63z m988 49 c10 -9 -105 -3 -119 6 -10 7 6 8 50 4 36 -4 67 -8 69 -10z m641 -130 c0 -80 -4 -143 -8 -140 -18 11 -30 -12 -37 -69 -4 -39 -3 -55 3 -46 5 7 7 22 4 33 -4 18 -2 19 17 9 23 -13 28 -31 9 -32 -10 0 -10 -2 -1 -6 10 -3 13 -45 12 -158 0 -137 -2 -153 -16 -148 -9 4 -21 -1 -29 -12 -12 -16 -14 7 -15 161 -1 98 -4 228 -8 288 l-6 109 -36 29 -36 29 -254 -10 c-140 -6 -276 -13 -304 -16 l-50 -5 3 49 4 48 201 12 c244 14 300 17 440 19 l107 2 0 -146z m-1347 19 c-4 -10 -2 -14 4 -10 5 3 25 -9 43 -28 19 -19 31 -35 27 -35 -4 0 -1 -10 8 -23 13 -21 13 -24 -5 -40 -30 -25 -36 -22 -48 31 -10 46 -10 46 -6 5 l5 -41 -63 -6 c-35 -3 -89 -7 -121 -9 l-58 -4 32 33 c35 36 127 104 115 86 -4 -7 -5 -12 -3 -12 3 0 14 16 26 35 21 36 56 50 44 18z m202 -120 c1 -10 5 -27 8 -38 6 -18 2 -20 -43 -20 -28 0 -50 2 -50 4 0 2 12 19 26 38 14 19 24 36 22 38 -2 2 -17 -16 -33 -40 -17 -25 -35 -43 -41 -41 -6 3 -17 -1 -23 -7 -8 -8 -11 -8 -11 2 0 7 -3 10 -7 8 -5 -2 -24 1 -43 9 -41 15 -20 18 28 5 17 -5 32 -6 32 -2 0 4 23 26 52 50 46 37 53 40 67 27 8 -9 15 -23 16 -33z m55 -28 c37 -38 36 -49 -3 -40 -21 6 -47 45 -47 71 0 12 21 -1 50 -31z m1084 -41 c11 -28 7 -44 -9 -38 -8 4 -15 17 -15 30 0 27 15 32 24 8z m-1134 -3 c0 -6 -21 -12 -47 -14 -27 -2 -12 -4 35 -4 46 -1 86 -4 89 -7 4 -3 -30 -6 -75 -6 -128 0 -186 33 -67 38 37 1 65 -2 65 -7z m-335 -41 c-4 -6 -54 -9 -123 -8 -94 1 -106 3 -62 8 91 11 192 11 185 0z m-35 -25 c0 -2 -18 -14 -39 -25 -22 -11 -57 -40 -78 -65 -20 -25 -42 -45 -48 -45 -6 0 -10 29 -10 70 l-1 70 88 0 c48 0 88 -2 88 -5z m1800 -235 c0 -11 -5 -20 -11 -20 -5 0 -8 -4 -5 -9 7 -11 -55 -8 -74 4 -9 5 -11 4 -6 -3 5 -8 -3 -12 -23 -12 -28 0 -31 3 -31 30 l0 30 75 0 c68 0 75 -2 75 -20z"/> <path d="M1850 748 c-1 -21 -3 -45 -4 -54 0 -9 10 -23 24 -32 l25 -14 -25 22 c-18 16 -20 20 -7 16 13 -4 16 -2 10 7 -4 6 -10 30 -14 52 l-6 40 -3 -37z"/> <path d="M464 646 c-3 -9 -10 -14 -14 -11 -4 3 -20 -12 -36 -33 -15 -20 -20 -31 -11 -23 14 11 17 11 17 0 0 -7 14 6 31 29 17 24 29 46 25 49 -3 3 -8 -2 -12 -11z"/> <path d="M1124 2315 c37 -22 166 -66 166 -57 0 4 -35 19 -78 33 -42 14 -86 29 -97 33 -11 4 -7 0 9 -9z"/> <path d="M1215 2309 c28 -12 81 -22 120 -24 l70 -4 -74 10 c-41 6 -90 17 -109 25 -19 8 -40 14 -46 13 -6 0 11 -9 39 -20z"/> <path d="M1720 2327 c8 -8 100 -47 100 -42 0 3 -12 11 -27 18 -32 17 -81 32 -73 24z"/> <path d="M2264 2242 c-1 -72 0 -78 6 -37 l7 50 1 -44 c1 -24 5 -42 8 -38 8 7 -6 157 -15 157 -3 0 -7 -39 -7 -88z"/> <path d="M2300 2263 c0 -38 5 -75 10 -83 7 -10 10 11 10 68 0 48 -4 82 -10 82 -6 0 -10 -29 -10 -67z"/> <path d="M2363 2253 c1 -46 2 -83 1 -83 -16 0 -124 -25 -136 -31 -16 -8 -16 -13 -2 -51 8 -23 21 -49 29 -58 8 -9 13 -19 10 -22 -3 -3 1 -20 9 -39 29 -72 29 -76 -4 -88 l-31 -10 21 -41 c20 -40 21 -57 23 -470 l2 -428 -37 34 c-20 18 -55 42 -77 53 -27 14 -39 27 -40 43 -4 98 -13 129 -41 143 -16 8 -31 15 -35 15 -3 0 -5 -27 -5 -60 0 -33 -3 -60 -7 -60 -4 0 -33 7 -65 16 l-58 17 0 63 0 62 -67 8 c-38 5 -165 8 -283 9 -233 0 -315 -11 -452 -62 l-68 -25 0 -57 -1 -56 -70 -54 c-39 -29 -72 -52 -73 -50 -8 9 8 228 15 223 5 -3 10 -44 11 -92 l2 -87 5 95 c5 84 4 96 -11 104 -10 5 -19 21 -19 35 -2 22 -2 23 -6 5 -3 -16 -9 -20 -24 -17 -25 7 -24 -4 2 -25 19 -16 20 -24 13 -135 -7 -116 -8 -120 -42 -160 -19 -23 -43 -45 -53 -49 -21 -8 -26 -38 -6 -38 7 0 67 7 132 16 66 9 183 21 260 27 137 12 140 13 143 36 2 14 11 35 19 47 14 22 101 84 118 84 4 0 -20 -29 -54 -65 -33 -36 -61 -69 -61 -73 0 -4 120 -7 266 -7 186 0 261 3 248 10 -28 15 -191 175 -178 175 5 0 56 -42 113 -93 101 -91 103 -92 174 -104 l72 -12 -60 3 c-33 2 -87 0 -120 -5 -36 -4 32 -6 168 -3 l228 5 -3 -268 c-1 -147 -4 -332 -6 -411 l-3 -142 -39 0 c-21 0 -41 -4 -44 -9 -8 -12 75 -1 92 12 9 7 12 103 12 418 l0 409 -102 1 c-107 1 -233 15 -156 18 20 0 45 4 55 7 15 5 16 4 3 -5 -11 -9 11 -11 93 -9 94 3 111 6 123 22 12 16 14 94 14 447 0 404 1 427 18 431 18 5 18 -12 17 -394 -1 -219 1 -400 4 -403 4 -2 8 177 9 398 1 220 4 403 7 406 3 2 11 -1 17 -7 19 -19 26 -14 53 38 l26 50 -31 6 c-16 4 -30 9 -30 13 0 4 -18 5 -40 3 -36 -4 -41 -1 -51 24 -6 16 -11 39 -11 51 0 13 -4 20 -9 17 -5 -3 -6 2 -3 10 3 8 -1 27 -9 43 -26 50 -30 73 -14 73 9 0 18 -6 20 -12 4 -8 6 -7 6 3 1 22 47 30 120 23 47 -5 58 -10 55 -23 -11 -58 -16 -71 -23 -66 -5 3 -14 -16 -20 -42 -5 -27 -13 -57 -16 -68 -3 -11 10 10 29 47 55 104 64 178 21 178 -11 0 -15 20 -18 88 l-3 87 -2 -87 c-2 -81 -4 -88 -22 -88 -17 0 -20 7 -21 43 0 23 -4 62 -9 87 -7 39 -8 34 -7 -37z m-33 -372 c0 -5 3 -23 7 -41 5 -29 4 -32 -11 -27 -10 4 -15 3 -11 -3 3 -6 -1 -10 -9 -10 -15 0 -52 57 -43 67 3 2 15 -5 26 -16 23 -23 26 -20 11 9 -9 16 -8 18 6 13 12 -4 15 -3 10 5 -4 7 -2 12 3 12 6 0 11 -4 11 -9z m87 -15 c3 -3 3 -17 -1 -31 -5 -19 -13 -25 -35 -25 -15 0 -28 6 -29 13 0 6 -4 23 -8 36 -7 23 -6 24 31 18 20 -3 40 -8 42 -11z m-833 -633 c-8 -42 -8 -51 -3 -73 3 -13 -18 -16 -131 -22 -135 -6 -255 -24 -341 -51 l-46 -14 -2 53 c0 30 4 54 9 54 6 0 10 -15 10 -32 0 -18 5 -40 11 -48 7 -11 8 -2 3 32 -3 26 -2 53 2 60 6 8 11 -6 15 -42 l6 -55 1 58 c2 42 6 57 16 57 11 0 16 -14 19 -47 l3 -48 2 51 c1 36 7 54 17 58 12 4 15 -6 17 -52 l2 -57 3 55 c4 55 14 70 45 70 14 0 18 -11 21 -57 l3 -58 2 61 2 61 46 7 c85 11 83 12 87 -51 l3 -58 2 63 2 62 90 0 91 0 -7 -37z m35 15 c1 15 7 22 21 22 17 0 20 -7 22 -52 l2 -53 3 48 c4 46 5 47 39 47 32 0 34 -2 34 -32 0 -18 5 -40 10 -48 7 -10 8 0 4 33 l-7 47 39 0 39 0 -1 -52 -2 -53 7 48 c3 26 9 47 14 47 4 0 21 0 37 0 30 0 30 0 30 -58 l0 -58 -82 12 c-81 13 -185 18 -177 10 2 -3 31 -7 64 -10 33 -4 85 -9 115 -12 108 -11 270 -58 270 -79 0 -19 -72 -76 -88 -70 -7 3 -11 1 -8 -3 3 -4 -3 -13 -13 -19 -14 -9 -27 -2 -73 43 -31 29 -59 61 -62 70 -10 27 -13 13 -8 -36 4 -33 7 -39 11 -23 6 22 8 21 54 -18 26 -22 47 -45 47 -49 0 -5 -12 -16 -27 -24 -16 -8 -23 -15 -17 -16 6 0 39 18 73 40 34 22 64 40 67 40 3 0 -4 -13 -15 -29 -12 -16 -21 -33 -21 -37 0 -5 11 7 24 26 13 19 22 38 20 41 -2 3 8 17 21 29 33 31 32 55 -2 66 -27 9 -28 10 -22 69 l6 60 3 -60 3 -60 7 55 7 55 3 -60 3 -60 7 55 7 55 1 -56 c1 -31 5 -59 9 -63 4 -4 8 -15 8 -24 0 -9 22 -31 49 -48 55 -37 108 -85 101 -93 -3 -2 -20 9 -38 25 -31 28 -31 28 -8 2 14 -16 21 -31 17 -35 -10 -10 -58 45 -51 57 5 8 -45 50 -59 50 -12 0 -6 -51 9 -80 18 -34 9 -38 -39 -20 -17 6 -54 5 -111 -2 -83 -11 -85 -11 -110 12 -14 13 -24 29 -21 35 4 10 -103 105 -118 105 -4 0 -23 11 -43 25 -20 13 -39 22 -43 20 -4 -2 -7 2 -7 10 0 9 8 13 21 10 12 -2 62 -9 111 -15 79 -10 209 -35 285 -56 14 -4 22 -4 19 0 -19 20 -370 86 -460 86 -4 0 -9 17 -12 38 -3 20 -8 51 -11 67 -5 27 -5 27 3 5 9 -24 9 -24 10 -2z m-5 -121 c-1 -9 3 -14 8 -11 6 4 8 -3 3 -17 -3 -14 -3 -19 2 -12 10 14 36 12 42 -2 5 -16 154 -169 171 -177 8 -3 -32 -4 -90 -1 -63 4 -113 11 -125 19 -16 12 -17 14 -3 14 9 0 20 -4 23 -10 3 -5 38 -10 77 -10 39 0 68 3 65 7 -4 3 -33 5 -66 4 -37 -1 -62 3 -67 10 -5 9 -2 10 9 6 10 -4 17 -2 17 5 0 11 -67 6 -103 -8 -23 -8 -22 9 3 81 11 32 18 60 16 62 -8 8 -48 -128 -42 -142 7 -18 -2 -19 -24 -2 -9 6 -6 3 5 -8 l21 -21 -35 0 c-20 -1 -65 -3 -100 -6 l-63 -6 53 57 c151 158 184 191 194 187 5 -2 9 -10 9 -19z m-84 -27 c-19 -16 -39 -30 -43 -30 -5 0 -6 -4 -2 -9 3 -5 0 -13 -6 -17 -8 -4 -9 -3 -5 4 18 30 -52 -7 -106 -56 l-41 -37 5 48 c3 26 1 50 -4 53 -5 3 -8 -19 -7 -55 4 -97 -4 -99 -129 -29 -59 33 -113 65 -120 72 -11 11 7 16 95 30 59 9 164 21 233 27 160 13 176 19 35 15 -73 -2 -92 -1 -55 4 30 3 84 7 120 8 l65 1 -35 -29z m-414 -106 c9 -1 24 -10 33 -18 10 -9 21 -13 26 -9 4 5 5 3 2 -3 -4 -6 5 -21 18 -34 23 -22 23 -24 7 -36 -17 -14 -118 -19 -146 -8 -12 5 -15 18 -11 67 l4 62 -9 -59 c-5 -32 -12 -61 -14 -63 -2 -3 -39 -7 -83 -10 l-78 -6 35 39 c32 35 31 35 -12 -5 -26 -25 -50 -42 -53 -40 -6 7 55 66 140 133 l70 55 27 -31 c15 -18 35 -33 44 -34z m1069 -45 c30 -47 30 -49 5 -49 -20 0 -32 20 -46 77 -9 35 10 23 41 -28z m-877 -42 c6 3 12 1 12 -4 0 -5 -13 -10 -30 -11 -23 -2 -39 7 -67 34 l-38 36 55 -29 c30 -17 61 -28 68 -26z m-259 -31 c-7 -8 -251 -37 -257 -31 -11 11 7 15 104 24 125 11 158 12 153 7z"/> <path d="M1493 1205 c0 -33 2 -45 4 -27 2 18 2 45 0 60 -2 15 -4 0 -4 -33z"/> <path d="M1296 1202 c-4 -24 -6 -46 -2 -49 8 -8 18 42 14 68 -3 18 -6 13 -12 -19z"/> <path d="M1938 1037 c24 -13 41 -25 38 -28 -3 -3 5 -6 17 -6 17 -2 19 0 7 8 -27 18 -89 49 -97 49 -4 -1 11 -11 35 -23z"/> <path d="M1519 1023 c-40 -63 -58 -81 -92 -96 -29 -12 -33 -16 -13 -12 15 3 42 9 58 12 16 3 25 9 19 12 -6 4 9 37 39 84 27 42 47 77 44 77 -2 0 -27 -35 -55 -77z"/> <path d="M986 959 c-39 -65 -49 -93 -15 -44 25 37 61 105 55 105 -2 0 -20 -27 -40 -61z"/> <path d="M1061 1010 c-2 -10 36 -110 44 -118 4 -4 4 4 0 18 -9 30 -43 107 -44 100z"/> <path d="M1110 983 c1 -5 18 -28 39 -52 27 -31 41 -40 46 -31 5 8 4 11 -2 7 -5 -3 -25 14 -43 38 -34 45 -40 51 -40 38z"/> <path d="M2621 2148 c-11 -175 -13 -184 -38 -210 -14 -14 -23 -32 -20 -40 4 -9 6 -8 6 3 1 23 33 49 39 31 2 -7 9 -18 16 -25 8 -8 15 -58 19 -134 l6 -121 -35 -4 c-35 -4 -35 6 1 15 18 4 18 5 -2 6 -13 0 -37 -13 -55 -30 -18 -17 -27 -28 -20 -24 8 4 19 -1 27 -11 12 -16 14 -88 15 -391 l0 -373 -33 0 c-32 0 -33 -1 -28 -33 5 -31 6 -31 9 -4 3 21 9 27 27 27 22 0 23 -4 31 -112 6 -78 8 38 6 366 -2 495 -1 506 38 506 23 0 27 -50 36 -485 8 -356 8 -356 1 -440 -2 -33 -2 -43 0 -22 2 20 9 37 14 37 6 0 8 9 4 20 -6 20 22 80 37 80 4 0 10 -12 14 -27 9 -42 12 -50 13 -30 1 9 5 17 10 17 13 0 61 -99 55 -114 -3 -8 1 -16 8 -19 11 -4 13 15 10 95 -4 78 -1 102 9 109 35 22 39 11 39 -109 l0 -118 -41 -18 c-22 -10 -54 -22 -72 -27 -53 -15 -97 -48 -112 -83 -14 -34 -54 -54 -77 -40 -7 4 -8 3 -4 -4 4 -7 4 -18 -1 -25 -5 -7 -10 29 -14 83 l-5 95 -3 -100 c-3 -131 -19 -171 -21 -55 -1 47 -4 132 -6 190 -3 94 -2 103 11 86 13 -18 15 -18 17 -3 0 9 1 21 2 25 1 5 -29 34 -66 66 l-68 57 0 475 c0 309 -3 474 -10 474 -6 0 -10 -100 -11 -277 -1 -562 -1 -550 -9 -453 -7 87 -6 -58 6 -637 4 -189 3 -303 -3 -303 -9 0 -33 -42 -33 -57 0 -3 9 2 20 12 11 10 20 24 20 31 0 8 6 11 15 8 8 -4 15 -12 15 -19 0 -7 8 -19 17 -26 14 -12 16 -12 8 0 -4 8 -7 87 -6 175 1 89 -2 166 -6 173 -5 6 -7 -38 -5 -98 4 -117 -3 -199 -19 -199 -5 0 -9 71 -9 170 0 94 3 170 8 170 4 -1 18 -7 32 -15 14 -8 30 -14 35 -14 6 0 -7 9 -27 20 l-38 19 0 155 0 155 46 -33 46 -32 -4 -118 c-3 -65 -2 -113 2 -106 5 6 7 -84 6 -202 l-1 -214 -28 -18 c-16 -10 -37 -15 -48 -12 -26 8 -56 -2 -64 -22 -5 -15 -3 -14 14 1 19 17 23 18 61 2 39 -15 41 -15 38 1 -5 28 39 29 68 2 13 -12 24 -18 24 -13 0 5 -9 15 -20 22 -24 14 -27 37 -4 28 9 -3 12 -2 9 5 -4 6 -13 8 -21 5 -12 -4 -14 17 -14 120 0 69 4 130 10 137 6 7 19 24 31 39 11 15 34 31 51 36 23 6 34 16 41 37 14 44 46 74 91 86 23 6 61 19 86 29 25 10 60 21 79 24 l33 6 -17 -28 c-9 -15 -42 -51 -73 -80 -65 -62 -41 -55 31 8 26 23 50 53 53 66 3 13 14 29 23 35 12 8 4 9 -31 6 l-48 -5 0 124 c0 117 1 124 20 124 19 0 20 -7 20 -116 0 -82 3 -113 11 -108 8 4 10 43 8 118 l-4 111 28 3 c15 2 27 7 27 11 0 4 -13 6 -30 3 l-29 -4 -4 93 -3 94 -2 -97 c-2 -91 -4 -98 -22 -98 -19 0 -20 7 -20 113 l0 114 55 12 c30 7 55 16 55 21 0 5 -23 2 -50 -6 -28 -8 -54 -12 -59 -9 -5 3 -11 2 -13 -3 -1 -4 -38 -21 -80 -36 l-78 -28 0 -112 c-1 -76 -5 -116 -14 -128 -11 -15 -14 14 -19 179 -4 108 -7 292 -7 409 0 182 3 219 17 250 17 34 17 37 0 49 -14 10 -17 29 -17 123 0 67 4 113 11 117 7 5 5 14 -5 29 -8 12 -16 33 -19 47 -4 22 -4 22 -6 2 0 -12 -9 -24 -18 -26 -14 -4 -13 -5 4 -6 28 -1 51 -39 29 -47 -8 -3 -23 -1 -34 5 -18 10 -20 19 -15 118 6 132 11 154 13 53 0 -41 4 -68 8 -60 9 19 3 310 -7 310 -4 0 -13 -82 -20 -182z m49 -365 c0 -58 -2 -104 -4 -102 -9 11 -15 209 -6 209 6 0 10 -42 10 -107z m-60 -168 c0 -15 -6 -25 -14 -25 -19 0 -30 32 -14 42 21 13 28 9 28 -17z m40 5 c0 -11 -7 -20 -15 -20 -8 0 -15 9 -15 20 0 11 7 20 15 20 8 0 15 -9 15 -20z m230 -675 c0 -63 -4 -115 -9 -115 -5 0 -16 -3 -25 -6 -14 -5 -16 5 -16 76 0 55 -3 79 -11 75 -6 -5 -9 -35 -6 -82 3 -68 2 -76 -17 -83 -15 -6 -17 -9 -5 -9 18 -1 29 -40 29 -95 -1 -28 -2 -29 -12 -11 -6 11 -25 35 -42 54 -17 19 -26 31 -19 27 8 -4 7 2 -2 21 -10 19 -15 59 -15 119 l0 92 68 25 c37 13 70 25 75 26 4 0 7 -51 7 -114z m-473 -392 c-1 -54 -3 -12 -3 92 0 105 2 149 3 98 2 -51 2 -136 0 -190z m108 182 c35 -31 32 -30 -25 10 -36 26 -67 52 -69 58 -5 13 42 -20 94 -68z"/> <path d="M96 2216 c49 -54 88 -102 87 -106 -1 -3 39 -47 90 -96 50 -49 81 -77 67 -61 -40 46 -12 30 58 -33 37 -33 70 -60 74 -60 5 0 -11 17 -34 37 -24 20 -130 122 -237 227 -142 140 -170 164 -105 92z m178 -183 c69 -74 53 -66 -24 13 -36 36 -56 60 -45 53 11 -7 42 -37 69 -66z"/> <path d="M160 2036 c112 -114 201 -196 342 -314 10 -9 18 -13 18 -10 0 3 -35 34 -77 69 -43 35 -154 137 -248 228 -166 161 -167 162 -35 27z"/> <path d="M1590 2088 c1 -18 1 -35 0 -38 -6 -19 -5 -147 2 -156 5 -6 -1 -32 -13 -62 -20 -49 -23 -51 -96 -78 -153 -55 -296 -177 -366 -312 -40 -76 -67 -161 -67 -208 l0 -32 58 24 c120 48 249 66 472 66 284 0 481 -32 536 -87 l24 -24 0 34 c0 60 -21 138 -60 222 -64 138 -182 244 -344 310 -77 31 -80 33 -102 85 -15 36 -19 57 -12 65 6 8 5 19 -3 35 -7 13 -12 28 -10 33 6 17 8 129 3 143 -9 24 -23 11 -22 -20z m50 -321 c16 -4 46 -14 67 -23 21 -9 46 -19 56 -21 33 -6 156 -92 204 -140 61 -63 90 -112 123 -203 23 -63 44 -160 36 -160 -2 0 -16 7 -32 14 -94 47 -262 69 -529 69 -191 1 -232 -2 -315 -21 -52 -12 -95 -22 -97 -22 -22 0 44 184 93 257 32 47 38 60 20 43 -15 -13 -38 -44 -52 -69 -30 -54 -74 -180 -74 -213 0 -17 -10 -27 -40 -40 -39 -16 -40 -16 -40 3 0 42 52 174 94 238 78 119 194 209 342 267 51 20 93 39 92 42 -1 4 2 25 7 47 l10 40 3 -51 c3 -48 5 -52 32 -57z"/> <path d="M1445 1689 c-28 -29 -44 -49 -37 -45 17 10 16 7 -22 -75 -19 -41 -37 -90 -40 -109 -4 -21 3 -10 17 30 13 36 35 89 50 118 15 28 24 52 20 52 -4 0 0 6 8 13 21 18 63 67 58 67 -3 0 -27 -23 -54 -51z"/> <path d="M1536 1701 c-16 -30 -37 -139 -35 -181 1 -14 7 14 15 63 7 48 21 101 29 117 9 17 13 30 11 30 -3 0 -12 -13 -20 -29z"/> <path d="M1757 1710 c6 -8 27 -38 49 -66 21 -28 45 -60 52 -70 7 -11 3 -1 -8 21 -12 22 -39 60 -62 85 -22 25 -36 38 -31 30z"/> <path d="M1378 1653 c-46 -48 -118 -150 -118 -167 0 -5 17 17 38 50 22 32 60 83 86 112 60 65 56 68 -6 5z"/> <path d="M1565 1558 c-4 -79 -5 -165 -3 -193 1 -27 7 35 11 138 5 104 6 191 4 193 -3 3 -8 -59 -12 -138z"/> <path d="M1637 1630 c2 -36 9 -121 13 -190 l9 -125 -5 155 c-3 85 -9 171 -14 190 -6 27 -7 20 -3 -30z"/> <path d="M1452 1603 c-22 -61 -43 -189 -41 -251 1 -20 7 8 15 63 21 147 21 146 38 194 9 24 15 46 12 48 -2 2 -13 -22 -24 -54z"/> <path d="M1878 1625 c17 -22 45 -65 61 -95 17 -30 31 -51 31 -46 0 19 -69 132 -96 156 -26 24 -26 23 4 -15z"/> <path d="M1341 1552 c-31 -62 -84 -271 -61 -245 4 4 12 40 19 78 7 39 25 100 41 138 31 73 31 89 1 29z"/> <path d="M1991 1502 c54 -117 70 -149 63 -127 -16 49 -16 61 0 35 19 -32 20 -14 1 20 -9 15 -15 19 -15 10 0 -12 -3 -11 -11 3 -6 10 -8 25 -5 33 4 10 2 12 -6 8 -8 -5 -9 -2 -5 10 4 9 3 15 -2 12 -5 -3 -14 8 -21 24 -7 16 -17 34 -24 39 -6 5 5 -25 25 -67z"/> <path d="M1727 1440 c3 -52 9 -104 14 -115 9 -22 2 81 -11 160 -6 34 -6 20 -3 -45z"/> <path d="M1169 1478 c-17 -24 -39 -61 -48 -83 -20 -46 -44 -135 -38 -142 3 -2 10 18 16 44 16 62 55 148 87 190 14 18 23 33 20 33 -3 0 -20 -19 -37 -42z"/> <path d="M1494 1405 c0 -49 1 -71 3 -48 2 23 2 64 0 90 -2 26 -3 8 -3 -42z"/> <path d="M1827 1415 c3 -32 10 -71 14 -85 10 -31 1 59 -12 110 -6 25 -6 18 -2 -25z"/> <path d="M1981 1435 c0 -5 8 -44 19 -85 12 -48 17 -59 13 -30 -5 44 -30 134 -32 115z"/> <path d="M1926 1370 c3 -30 10 -59 14 -63 4 -5 3 18 -2 50 -12 74 -21 84 -12 13z"/> <path d="M2279 2080 c-3 -8 5 -46 17 -85 25 -78 32 -77 10 1 -8 27 -16 60 -18 74 -2 17 -5 20 -9 10z"/> <path d="M2313 2084 c-7 -3 -13 -15 -12 -27 0 -21 1 -21 9 -2 5 11 9 16 9 10 1 -5 5 -4 10 4 6 9 7 -8 4 -46 -3 -36 -1 -68 5 -79 9 -15 11 -2 12 59 0 69 2 78 18 75 19 -4 21 -30 9 -108 -5 -33 -4 -39 3 -23 5 13 12 46 16 74 6 44 9 50 27 45 11 -3 16 -1 11 4 -11 11 -104 21 -121 14z"/> <path d="M960 2040 c59 -44 354 -171 393 -170 7 1 -29 16 -79 34 -51 18 -141 57 -200 87 -122 60 -135 65 -114 49z"/> <path d="M318 1939 c34 -36 60 -67 57 -70 -2 -3 10 -19 28 -35 31 -28 31 -28 8 -1 -29 33 -18 36 18 5 43 -37 -6 11 -94 92 l-80 74 63 -65z"/> <path d="M284 1825 c56 -55 121 -115 146 -134 29 -21 22 -13 -20 25 -36 32 -101 92 -146 134 -58 54 -52 47 20 -25z"/> <path d="M2574 1775 c0 -60 1 -84 3 -52 2 32 2 81 0 110 -2 29 -3 3 -3 -58z"/> <path d="M854 1799 c33 -11 61 -17 63 -15 5 5 -100 37 -114 35 -4 -1 19 -10 51 -20z"/> <path d="M880 1549 c0 -57 -3 -128 -7 -158 -6 -50 -5 -54 13 -47 10 4 15 4 11 0 -4 -4 -2 -13 4 -20 9 -10 7 -15 -5 -20 -8 -3 -21 -4 -28 -1 -7 3 -2 6 12 7 23 1 23 2 5 9 -24 10 -35 5 -35 -15 0 -10 12 -14 39 -14 l39 0 -8 38 c-5 20 -13 100 -19 176 -6 77 -13 141 -16 144 -3 3 -5 -42 -5 -99z"/> <path d="M0 1622 c0 -18 99 -92 158 -118 79 -36 76 -28 -7 16 -41 22 -92 56 -113 77 -21 20 -38 32 -38 25z"/> <path d="M2842 1574 c-62 -29 -114 -59 -117 -66 -2 -7 0 -103 4 -213 l9 -200 -2 207 -1 206 108 54 c60 29 111 56 113 61 7 9 14 13 -114 -49z"/> <path d="M2637 1020 c3 -201 7 -367 9 -369 8 -9 2 646 -6 689 -5 26 -6 -110 -3 -320z"/> <path d="M35 1281 c-22 -11 -33 -20 -25 -20 8 0 31 8 50 19 45 25 27 25 -25 1z"/> <path d="M144 1045 c0 -116 2 -161 3 -102 2 59 2 154 0 210 -1 56 -3 8 -3 -108z"/> <path d="M1948 1243 c19 -4 22 -11 24 -61 l2 -57 3 53 c3 37 8 52 19 52 10 0 14 -15 16 -57 l2 -58 3 53 c3 31 9 52 16 53 23 1 -58 27 -83 27 -23 -1 -23 -1 -2 -5z"/> <path d="M60 868 c5 -301 8 -276 12 105 2 126 -1 197 -7 197 -7 0 -8 -104 -5 -302z"/> <path d="M27 868 c-3 -161 -2 -347 1 -413 5 -79 8 20 9 293 1 226 1 412 -1 412 -2 0 -5 -132 -9 -292z"/> <path d="M4 995 c0 -88 2 -123 3 -77 2 46 2 118 0 160 -1 42 -3 5 -3 -83z"/> <path d="M2435 901 c15 -13 105 -45 111 -39 3 3 -23 15 -57 27 -35 12 -59 17 -54 12z"/> <path d="M2280 486 c0 -372 2 -405 18 -417 15 -13 16 -12 3 4 -12 15 -13 82 -7 417 5 274 4 400 -3 400 -7 0 -10 -132 -11 -404z"/> <path d="M2327 523 c-9 -308 -9 -471 2 -477 4 -3 9 154 10 349 1 195 0 355 -2 355 -2 0 -7 -102 -10 -227z"/> <path d="M1335 690 c-71 -4 -142 -8 -157 -9 l-28 -1 1 -342 c2 -289 3 -325 11 -228 5 63 7 215 6 336 l-3 222 85 6 c47 3 165 9 263 12 l177 7 0 -302 c0 -274 -1 -301 -17 -301 -9 0 -13 -3 -9 -7 4 -5 21 -8 37 -8 25 0 27 2 14 12 -14 10 -16 47 -13 310 l3 298 -120 1 c-66 0 -178 -2 -250 -6z"/> <path d="M1745 687 c-3 -7 -4 -143 -3 -302 2 -226 6 -289 16 -287 6 1 11 -3 10 -9 -2 -6 2 -13 7 -15 6 -3 9 24 7 72 -2 42 -1 93 3 113 6 30 8 33 17 18 5 -10 7 -24 5 -31 -3 -7 -1 -19 4 -27 10 -17 12 32 3 69 -16 59 -44 -11 -44 -110 0 -46 -4 -67 -11 -63 -14 10 -10 495 5 496 6 1 15 1 20 0 5 -1 4 5 -4 13 -15 19 -24 21 -14 4 4 -6 3 -8 -3 -5 -6 4 -9 22 -6 42 3 35 -3 47 -12 22z"/> <path d="M310 668 l-95 -20 5 -76 5 -77 3 72 c3 82 -7 73 122 98 83 17 113 26 74 24 -10 -1 -62 -10 -114 -21z"/> <path d="M1102 533 c-1 -120 -5 -153 -15 -153 -8 0 -14 8 -14 18 1 110 -18 152 -68 152 -33 0 -45 -27 -45 -103 l0 -64 70 -7 70 -7 -1 -122 c-2 -126 -4 -128 -14 -15 l-7 67 -35 -1 c-25 -1 -40 5 -52 19 -9 11 -33 33 -55 48 -21 16 -42 38 -46 49 -8 18 -9 18 -9 3 -1 -10 -11 -22 -23 -27 -20 -8 -19 -9 12 -9 27 -1 46 -11 84 -46 41 -38 48 -49 44 -74 -2 -17 -1 -28 4 -25 4 3 8 16 8 30 0 29 6 30 34 7 20 -17 20 -17 7 0 -11 14 -11 17 2 17 9 0 16 -12 19 -31 4 -28 3 -30 -25 -27 -16 2 -29 0 -28 -4 1 -5 1 -24 1 -43 0 -32 2 -35 30 -35 28 0 30 -3 30 -34 0 -19 -5 -38 -10 -41 -14 -8 -40 13 -36 28 1 7 1 9 -1 4 -3 -4 -9 -5 -14 -1 -10 6 9 -45 23 -60 15 -18 8 -29 -9 -15 -15 11 -16 11 -6 -1 7 -8 20 -15 29 -16 14 -2 14 0 0 21 -21 32 -21 32 15 30 17 -1 33 3 35 9 2 6 3 146 1 311 -1 165 -3 231 -5 148z m-44 -55 c2 -20 -1 -28 -12 -28 -10 0 -16 9 -16 24 0 20 -4 23 -22 18 -19 -5 -20 -7 -5 -10 27 -6 21 -32 -8 -32 -21 0 -25 5 -25 31 0 29 1 30 43 27 38 -3 42 -6 45 -30z m-38 -63 c0 -20 -5 -25 -25 -25 -20 0 -25 5 -25 25 0 20 5 25 25 25 20 0 25 -5 25 -25z m40 0 c0 -16 -6 -25 -15 -25 -9 0 -15 9 -15 25 0 16 6 25 15 25 9 0 15 -9 15 -25z m20 -219 c0 -14 -4 -27 -9 -30 -17 -11 -41 6 -40 28 0 21 0 21 9 -1 12 -30 18 -29 12 2 -3 18 0 25 12 25 10 0 16 -9 16 -24z"/> <path d="M1494 639 c-7 -12 35 -59 109 -121 l47 -40 0 86 0 86 -74 0 c-43 0 -78 -5 -82 -11z m146 -70 l0 -71 -62 57 c-35 32 -64 61 -66 66 -4 9 28 16 86 18 l42 1 0 -71z"/> <path d="M1210 555 c0 -47 3 -85 8 -84 7 0 121 131 135 155 7 11 -6 14 -68 14 l-75 0 0 -85z m123 61 c-4 -7 -32 -39 -60 -72 l-53 -58 0 66 c0 74 0 74 83 77 29 1 36 -2 30 -13z"/> <path d="M2025 610 c-3 -5 1 -10 10 -10 12 0 15 -5 11 -16 -4 -10 -9 -51 -13 -93 -3 -42 -11 -80 -17 -84 -6 -5 30 -6 79 -3 50 3 94 6 99 6 16 0 -3 172 -21 192 -21 24 -103 26 -103 3 0 -12 4 -13 19 -5 27 14 66 13 78 -2 6 -7 10 -28 10 -45 l0 -33 -59 0 -58 0 0 -57 c0 -42 -3 -54 -11 -46 -8 8 -9 33 -4 77 6 65 7 65 41 72 18 3 46 3 61 -1 22 -5 25 -4 16 5 -6 7 -30 11 -57 9 -42 -4 -46 -2 -46 18 0 23 -23 32 -35 13z m159 -115 c4 -12 -5 -15 -54 -15 -47 0 -60 3 -60 15 0 11 13 15 54 15 39 0 55 -4 60 -15z m6 -50 c0 -24 -3 -25 -60 -25 -57 0 -60 1 -60 25 0 24 3 25 60 25 57 0 60 -1 60 -25z"/> <path d="M1317 519 l-97 -91 -1 -131 c0 -73 -4 -169 -7 -214 -4 -46 -4 -83 -1 -83 11 0 19 103 19 258 0 137 2 157 19 178 11 14 22 21 25 15 3 -5 -1 -14 -9 -21 -13 -10 -15 -47 -13 -224 l3 -211 2 195 c2 107 6 202 10 210 3 8 5 19 4 24 -1 5 5 6 13 3 8 -3 20 1 26 9 7 8 9 14 4 14 -4 0 3 11 16 25 29 31 50 33 24 3 -11 -13 -5 -10 13 6 18 16 30 32 28 36 -2 3 2 19 10 34 8 15 9 24 3 20 -7 -5 -8 -2 -3 6 6 10 12 7 26 -12 10 -13 52 -51 94 -82 77 -60 91 -75 53 -56 -22 11 -22 10 1 -10 14 -12 26 -30 28 -41 3 -17 -4 -19 -65 -19 -41 0 -73 5 -81 13 -10 8 -12 8 -7 0 5 -8 -9 -13 -46 -16 -29 -2 4 -4 75 -5 70 -1 127 -6 127 -11 0 -12 -77 -22 -152 -20 -68 2 -96 -8 -140 -49 -27 -25 -28 -29 -28 -136 0 -60 2 -107 4 -105 3 3 6 51 7 108 1 97 3 104 28 128 26 25 62 43 84 43 7 0 -3 -10 -21 -21 l-33 -22 20 -21 c29 -31 26 -40 -6 -20 l-28 17 27 -24 c15 -13 29 -33 31 -44 3 -11 5 -4 6 16 1 24 -5 42 -19 54 -21 19 -21 19 9 37 21 13 51 19 112 21 83 2 84 2 87 -23 l4 -25 -25 23 c-16 16 -33 22 -49 19 -21 -4 -21 -4 -2 -6 22 -1 74 -46 74 -64 0 -6 -14 2 -32 19 l-31 29 26 -35 c22 -30 26 -47 28 -110 0 -41 -2 -87 -6 -103 -5 -17 -3 -27 4 -27 6 0 11 4 11 9 0 10 39 8 61 -3 8 -4 5 0 -5 8 -11 9 -23 16 -28 16 -4 0 -8 91 -8 203 l0 203 -48 36 c-26 20 -58 46 -71 57 -13 11 -27 18 -31 16 -4 -3 -13 2 -19 9 -26 31 22 8 104 -50 l85 -59 3 -165 3 -165 2 170 2 170 -110 75 c-60 41 -112 76 -117 77 -4 2 -52 -38 -106 -88z m74 33 c-16 -31 -101 -103 -112 -96 -7 4 -2 15 12 30 12 13 24 22 27 20 2 -3 17 11 34 30 32 37 55 46 39 16z"/> <path d="M2572 518 c1 -63 2 -66 5 -20 l4 52 62 1 c34 0 85 5 112 9 34 6 14 7 -65 3 -81 -3 -112 -2 -105 6 6 6 65 12 140 14 l130 3 -142 2 -143 2 2 -72z"/> <path d="M915 570 c-19 -8 -19 -9 2 -9 21 -1 22 -6 26 -88 l3 -88 2 87 c2 98 -2 94 92 101 26 2 13 4 -30 5 -41 0 -84 -3 -95 -8z"/> <path d="M1963 365 c-1 -93 3 -181 7 -195 4 -14 5 25 3 86 l-6 111 29 -4 c16 -2 54 0 84 6 l55 9 -80 0 -80 -1 -6 79 c-4 55 -6 28 -6 -91z"/> <path d="M1429 508 c7 -10 10 -18 6 -18 -5 0 -1 -8 8 -18 10 -10 15 -21 12 -24 -3 -2 7 -15 23 -29 l27 -24 -24 28 c-14 15 -21 27 -16 27 4 0 1 8 -8 18 -10 10 -15 21 -12 24 3 3 -3 11 -12 19 -16 13 -17 12 -4 -3z"/> <path d="M1332 426 c-34 -35 -62 -68 -62 -72 0 -4 1 -5 3 -3 2 2 32 34 67 72 35 37 61 67 58 67 -3 0 -33 -29 -66 -64z"/> <path d="M534 449 l-29 -31 40 21 c52 28 100 26 153 -4 26 -15 42 -19 42 -12 0 14 -113 57 -151 57 -15 0 -37 -12 -55 -31z"/> <path d="M387 420 c-26 -16 -47 -32 -47 -35 0 -3 6 -2 13 2 6 5 29 19 50 32 32 20 44 31 34 31 -2 0 -24 -13 -50 -30z"/> <path d="M2838 389 c-14 -11 -44 -26 -65 -34 -21 -7 -32 -14 -24 -14 20 -1 97 37 111 55 17 19 10 17 -22 -7z"/> <path d="M608 328 c-20 -5 -39 -16 -42 -24 -5 -14 10 -20 16 -6 2 4 26 15 53 24 54 17 34 22 -27 6z"/> <path d="M2695 298 c-11 -6 -34 -24 -52 -39 l-32 -27 24 -16 c33 -22 46 -20 17 2 -21 17 -22 20 -7 32 13 11 20 9 43 -11 l27 -23 -22 23 -21 24 26 23 c29 25 28 30 -3 12z"/> <path d="M2750 287 c0 -2 28 -25 63 -51 61 -47 62 -47 17 -6 -42 39 -80 66 -80 57z"/> <path d="M1524 140 c0 -80 2 -112 3 -73 2 40 2 106 0 146 -1 39 -3 7 -3 -73z"/> <path d="M1465 239 l-35 -31 2 -107 2 -106 3 107 4 107 37 31 c20 16 33 30 30 30 -4 0 -23 -14 -43 -31z"/> <path d="M2820 267 c0 -3 24 -25 53 -48 28 -24 43 -33 33 -21 -25 28 -10 28 23 0 l26 -22 -25 27 c-14 15 -36 29 -49 32 -13 2 -32 12 -42 21 -11 10 -19 15 -19 11z"/> <path d="M200 255 c0 -2 22 -16 49 -30 38 -19 49 -21 47 -10 -1 9 -8 21 -16 28 -12 10 -12 9 -1 -5 18 -24 3 -23 -34 2 -29 20 -45 25 -45 15z"/> <path d="M50 243 c0 -7 45 -47 92 -81 37 -27 16 -3 -37 43 -30 25 -55 43 -55 38z"/> <path d="M640 156 c60 -63 63 -68 36 -62 -17 4 -57 30 -90 58 l-61 50 55 -51 55 -52 -55 6 c-194 21 -216 22 -225 13 -7 -6 -7 -9 0 -8 6 2 28 2 50 1 36 -1 43 -6 68 -45 15 -24 35 -50 44 -58 12 -8 10 -2 -5 19 -32 46 -27 52 13 13 19 -18 44 -34 55 -35 19 -2 19 0 -6 42 -14 25 -24 47 -21 49 3 3 21 2 41 -2 l37 -6 -7 -44 c-4 -30 -3 -44 5 -44 6 0 12 20 13 48 l1 47 7 -50 7 -50 1 46 c2 45 2 46 35 41 54 -8 62 -21 31 -53 -23 -24 -24 -28 -8 -25 10 2 32 11 48 19 26 14 31 14 52 0 13 -8 24 -11 24 -7 0 5 4 2 10 -6 5 -8 11 -12 14 -9 3 3 -7 17 -22 32 l-28 27 -39 -20 c-21 -11 -40 -19 -41 -17 -1 1 8 14 19 28 20 25 27 26 74 22 42 -4 50 -8 46 -22 -3 -12 -1 -11 11 3 9 11 16 29 16 40 -1 19 -2 19 -11 4 -17 -30 -89 -17 -146 27 l-48 37 40 -36 c39 -35 31 -53 -9 -18 -20 16 -20 16 -7 0 16 -22 -1 -24 -19 -3 -7 8 -9 15 -5 15 5 0 0 9 -10 20 -10 11 -21 18 -23 15 -3 -3 -24 12 -46 32 -23 21 -12 7 24 -31z m-125 -56 c19 0 27 -8 36 -40 7 -22 16 -37 22 -33 6 4 7 1 2 -6 -5 -9 -20 0 -53 31 -25 23 -41 36 -37 28 8 -13 7 -13 -8 -1 -21 17 -22 35 -1 27 9 -3 26 -6 39 -6z"/> <path d="M971 211 c-13 -8 -12 -15 5 -46 10 -20 23 -39 27 -42 5 -3 1 10 -8 28 -14 25 -15 37 -6 51 12 20 5 23 -18 9z"/> <path d="M1336 205 c-3 -9 -5 -60 -4 -113 l2 -97 5 110 c7 120 6 124 -3 100z"/> <path d="M2600 213 c0 -5 16 -18 35 -31 42 -27 46 -20 8 13 -29 25 -43 31 -43 18z"/> <path d="M0 145 c1 -11 7 -29 15 -39 8 -10 12 -22 10 -26 -2 -4 15 -24 38 -46 l42 -39 -40 43 c-21 23 -34 42 -29 42 6 0 19 -9 30 -21 10 -12 33 -30 49 -41 17 -12 4 4 -27 33 -32 30 -65 68 -73 84 -11 23 -15 25 -15 10z"/> <path d="M2550 130 c0 -5 30 -10 68 -12 l67 -3 6 -35 6 -35 2 33 c2 46 25 36 29 -12 3 -29 0 -36 -10 -30 -7 4 -4 -2 6 -14 20 -23 35 -31 19 -9 -5 6 -7 23 -4 36 6 24 7 23 34 -13 16 -20 33 -36 38 -36 6 0 -8 21 -31 47 -41 47 -41 65 0 43 16 -8 20 -8 18 2 -4 19 -50 30 -60 15 -7 -11 -12 -3 -10 15 1 3 -5 9 -14 12 -8 3 -12 2 -9 -4 3 -5 -9 -7 -27 -5 -103 13 -128 14 -128 5z"/> <path d="M2813 88 c1 -7 5 -15 8 -18 4 -3 16 -21 28 -40 11 -19 21 -31 21 -25 0 6 -9 25 -20 43 -22 36 -24 42 -11 42 5 0 14 -13 21 -30 14 -33 35 -30 26 4 -5 20 -2 21 57 19 l62 -1 -60 8 c-95 12 -135 12 -132 -2z"/> <path d="M188 64 c24 -22 30 -32 22 -40 -9 -9 -9 -14 0 -19 7 -4 16 -1 21 6 6 11 11 11 21 1 6 -6 16 -12 21 -12 10 0 -11 17 -78 64 l-40 28 33 -28z"/> </g> </svg> 